<svg width="64" height="64" viewBox="0 0 64 64" fill="none" xmlns="http://www.w3.org/2000/svg">
<circle cx="32" cy="32" r="32" fill="url(#paint0_linear)"/>
<path d="M39.0349 37.3872L44.0317 42.3828L42.3809 44.0336L37.3852 39.0368C35.5264 40.5269 33.2144 41.3374 30.832 41.334C25.036 41.334 20.332 36.63 20.332 30.834C20.332 25.038 25.036 20.334 30.832 20.334C36.628 20.334 41.332 25.038 41.332 30.834C41.3354 33.2163 40.525 35.5283 39.0349 37.3872ZM36.6945 36.5215C38.1752 34.9989 39.002 32.9578 38.9987 30.834C38.9987 26.3213 35.3435 22.6673 30.832 22.6673C26.3194 22.6673 22.6654 26.3213 22.6654 30.834C22.6654 35.3455 26.3194 39.0007 30.832 39.0007C32.9559 39.004 34.9969 38.1771 36.5195 36.6965L36.6945 36.5215ZM32.2064 26.3727C31.8623 26.528 31.5612 26.7646 31.3287 27.062C31.0962 27.3594 30.9393 27.7087 30.8715 28.0801C30.8037 28.4514 30.827 28.8337 30.9395 29.194C31.0519 29.5544 31.2501 29.8821 31.517 30.149C31.7839 30.4159 32.1116 30.6141 32.472 30.7265C32.8323 30.839 33.2146 30.8623 33.5859 30.7945C33.9573 30.7267 34.3066 30.5698 34.604 30.3373C34.9014 30.1048 35.138 29.8037 35.2934 29.4597C35.6 30.4555 35.5644 31.5254 35.1924 32.4988C34.8204 33.4721 34.1333 34.293 33.2407 34.8305C32.348 35.3681 31.3011 35.5914 30.2668 35.4649C29.2325 35.3384 28.2703 34.8694 27.5334 34.1326C26.7966 33.3958 26.3276 32.4335 26.2011 31.3992C26.0746 30.3649 26.298 29.318 26.8355 28.4253C27.3731 27.5327 28.1939 26.8456 29.1673 26.4736C30.1406 26.1016 31.2105 26.0661 32.2064 26.3727Z" fill="white"/>
<defs>
<linearGradient id="paint0_linear" x1="17.0375" y1="12.321" x2="52.2988" y2="64" gradientUnits="userSpaceOnUse">
<stop stop-color="#BEADFF"/>
<stop offset="1" stop-color="#836AE4"/>
</linearGradient>
</defs>
</svg>
