<svg width="64" height="64" viewBox="0 0 64 64" fill="none" xmlns="http://www.w3.org/2000/svg">
<circle cx="32" cy="32" r="32" fill="url(#paint0_linear)"/>
<path d="M32 21.5V42.5H26.8667C25.4433 42.5 24.0783 41.9346 23.0719 40.9281C22.0654 39.9217 21.5 38.5567 21.5 37.1333V26.8667C21.5 25.4433 22.0654 24.0783 23.0719 23.0719C24.0783 22.0654 25.4433 21.5 26.8667 21.5H32ZM29.6667 23.8333H26.8667C26.0622 23.8333 25.2906 24.1529 24.7218 24.7218C24.1529 25.2906 23.8333 26.0622 23.8333 26.8667V37.1333C23.8333 37.9378 24.1529 38.7094 24.7218 39.2782C25.2906 39.8471 26.0622 40.1667 26.8667 40.1667H29.6667V23.8333ZM26.75 29.6667C26.2859 29.6667 25.8408 29.4823 25.5126 29.1541C25.1844 28.8259 25 28.3808 25 27.9167C25 27.4525 25.1844 27.0074 25.5126 26.6792C25.8408 26.351 26.2859 26.1667 26.75 26.1667C27.2141 26.1667 27.6592 26.351 27.9874 26.6792C28.3156 27.0074 28.5 27.4525 28.5 27.9167C28.5 28.3808 28.3156 28.8259 27.9874 29.1541C27.6592 29.4823 27.2141 29.6667 26.75 29.6667ZM34.3333 21.5H37.1333C37.8381 21.5 38.536 21.6388 39.1871 21.9085C39.8382 22.1782 40.4298 22.5735 40.9281 23.0719C41.4265 23.5702 41.8218 24.1618 42.0915 24.8129C42.3612 25.464 42.5 26.1619 42.5 26.8667V37.1333C42.5 37.8381 42.3612 38.536 42.0915 39.1871C41.8218 39.8382 41.4265 40.4298 40.9281 40.9281C40.4298 41.4265 39.8382 41.8218 39.1871 42.0915C38.536 42.3612 37.8381 42.5 37.1333 42.5H34.3333V21.5ZM37.8333 35.15C38.1091 35.15 38.3822 35.0957 38.637 34.9901C38.8918 34.8846 39.1233 34.7299 39.3183 34.5349C39.5133 34.3399 39.6679 34.1084 39.7735 33.8536C39.879 33.5989 39.9333 33.3258 39.9333 33.05C39.9333 32.7742 39.879 32.5011 39.7735 32.2464C39.6679 31.9916 39.5133 31.7601 39.3183 31.5651C39.1233 31.3701 38.8918 31.2154 38.637 31.1099C38.3822 31.0043 38.1091 30.95 37.8333 30.95C37.2764 30.95 36.7422 31.1712 36.3484 31.5651C35.9546 31.9589 35.7333 32.493 35.7333 33.05C35.7333 33.607 35.9546 34.1411 36.3484 34.5349C36.7422 34.9288 37.2764 35.15 37.8333 35.15Z" fill="white"/>
<defs>
<linearGradient id="paint0_linear" x1="17.0375" y1="12.321" x2="52.2988" y2="64" gradientUnits="userSpaceOnUse">
<stop stop-color="#BEADFF"/>
<stop offset="1" stop-color="#836AE4"/>
</linearGradient>
</defs>
</svg>
