<svg width="64" height="64" viewBox="0 0 64 64" fill="none" xmlns="http://www.w3.org/2000/svg">
<circle cx="32" cy="32" r="32" fill="url(#paint0_linear)"/>
<path d="M40.7623 27.3334H42.0013C42.6201 27.3334 43.2136 27.5792 43.6512 28.0168C44.0888 28.4544 44.3346 29.0479 44.3346 29.6667V34.3334C44.3346 34.9522 44.0888 35.5457 43.6512 35.9833C43.2136 36.4209 42.6201 36.6667 42.0013 36.6667H40.7623C40.4779 38.9222 39.3801 40.9964 37.675 42.5C35.9699 44.0037 33.7747 44.8333 31.5013 44.8334V42.5C33.3578 42.5 35.1383 41.7625 36.451 40.4498C37.7638 39.137 38.5013 37.3566 38.5013 35.5V28.5C38.5013 26.6435 37.7638 24.8631 36.451 23.5503C35.1383 22.2375 33.3578 21.5 31.5013 21.5C29.6448 21.5 27.8643 22.2375 26.5516 23.5503C25.2388 24.8631 24.5013 26.6435 24.5013 28.5V36.6667H21.0013C20.3825 36.6667 19.789 36.4209 19.3514 35.9833C18.9138 35.5457 18.668 34.9522 18.668 34.3334V29.6667C18.668 29.0479 18.9138 28.4544 19.3514 28.0168C19.789 27.5792 20.3825 27.3334 21.0013 27.3334H22.2403C22.525 25.0781 23.6229 23.0042 25.328 21.5008C27.033 19.9975 29.2281 19.168 31.5013 19.168C33.7745 19.168 35.9696 19.9975 37.6746 21.5008C39.3797 23.0042 40.4776 25.0781 40.7623 27.3334ZM21.0013 29.6667V34.3334H22.168V29.6667H21.0013ZM40.8346 29.6667V34.3334H42.0013V29.6667H40.8346ZM26.5546 36.4159L27.7913 34.4372C28.9032 35.1338 30.1892 35.5022 31.5013 35.5C32.8134 35.5022 34.0994 35.1338 35.2113 34.4372L36.448 36.4159C34.9654 37.3447 33.2508 37.8361 31.5013 37.8334C29.7518 37.8361 28.0372 37.3447 26.5546 36.4159Z" fill="white"/>
<defs>
<linearGradient id="paint0_linear" x1="17.0375" y1="12.321" x2="52.2988" y2="64" gradientUnits="userSpaceOnUse">
<stop stop-color="#BEADFF"/>
<stop offset="1" stop-color="#836AE4"/>
</linearGradient>
</defs>
</svg>
